# xmcd
#
# Track frame offsets:
#        150
#        19757
#        40555
#        60162
#
# Disc length: 1075 seconds
#
# Revision: 0
# Processed by: cddbd v1.5.1PL2 Copyright (c) Steve Scherf et al.
# Submitted via: ExactAudioCopy v0.95b4
#
DISCID=20043104
DTITLE=FLAME - Remind
DYEAR=2002
DGENRE=JPop
TTITLE0=Remind
TTITLE1=Don't look back
TTITLE2=Remind (Instrumental)
TTITLE3=Don't look back (Instrumental)
EXTD=
EXTT0=
EXTT1=
EXTT2=
EXTT3=
PLAYORDER=
